<!-- <svg xmlns="http://www.w3.org/2000/svg" viewBox="0 0 1440 320"><path fill="#473C8B" fill-opacity="1"
d="M0,224L80,197.3C160,171,320,117,480,117.3C640,117,800,171,960,170.7C1120,171,1280,117,1360,90.7L1440,
64L1440,0L1360,0C1280,0,1120,0,960,0C800,0,640,0,480,0C320,0,160,0,80,0L0,0Z"></path></svg> -->

<svg xmlns="http://www.w3.org/2000/svg" viewBox="0 0 1440 320"><path fill="#161934" fill-opacity="1"
 d="M0,96L60,106.7C120,117,240,139,360,176C480,213,600,267,720,282.7C840,299,960,277,1080,256C1200,235,1320,
 213,1380,202.7L1440,192L1440,320L1380,320C1320,320,1200,320,1080,320C960,320,840,320,720,320C600,320,480,320,
 360,320C240,320,120,320,60,320L0,320Z"></path></svg>